<?xml version="1.0" encoding="UTF-8" standalone="no"?>
<!DOCTYPE svg PUBLIC "-//W3C//DTD SVG 1.1//EN"
 "http://www.w3.org/Graphics/SVG/1.1/DTD/svg11.dtd">
<!-- Generated by graphviz version 12.2.1 (20241206.2353)
 -->
<!-- Title: LSTM with Attention Pages: 1 -->
<svg width="323pt" height="929pt"
 viewBox="0.00 0.00 322.96 929.00" xmlns="http://www.w3.org/2000/svg" xmlns:xlink="http://www.w3.org/1999/xlink">
<g id="graph0" class="graph" transform="scale(0.693413 0.693413) rotate(0) translate(4 1335.75)">
<title>LSTM with Attention</title>
<polygon fill="white" stroke="none" points="-4,4 -4,-1335.75 461.75,-1335.75 461.75,4 -4,4"/>
<g id="clust1" class="cluster">
<title>cluster_2</title>
<polygon fill="none" stroke="black" stroke-dasharray="5,2" points="8,-145 8,-880.75 314,-880.75 314,-145 8,-145"/>
<text text-anchor="middle" x="38.12" y="-865.35" font-family="Times New Roman,serif" font-size="12.00">Attention</text>
</g>
<!-- 0 -->
<g id="node1" class="node">
<title>0</title>
<polygon fill="lightyellow" stroke="none" points="356.5,-1331.75 255.5,-1331.75 255.5,-1296.25 356.5,-1296.25 356.5,-1331.75"/>
<polygon fill="none" stroke="black" points="255.5,-1296.25 255.5,-1331.75 317.25,-1331.75 317.25,-1296.25 255.5,-1296.25"/>
<text text-anchor="start" x="260.5" y="-1317.25" font-family="Linux libertine" font-size="10.00">input&#45;tensor</text>
<text text-anchor="start" x="269.88" y="-1304.5" font-family="Linux libertine" font-size="10.00">depth:0</text>
<polygon fill="none" stroke="black" points="317.25,-1296.25 317.25,-1331.75 356.5,-1331.75 356.5,-1296.25 317.25,-1296.25"/>
<text text-anchor="start" x="322.25" y="-1310.88" font-family="Linux libertine" font-size="10.00">(2, 20)</text>
</g>
<!-- 2 -->
<g id="node3" class="node">
<title>2</title>
<polygon fill="aliceblue" stroke="none" points="382.5,-1260.25 229.5,-1260.25 229.5,-1214.75 382.5,-1214.75 382.5,-1260.25"/>
<polygon fill="none" stroke="black" points="229.5,-1214.75 229.5,-1260.25 285.25,-1260.25 285.25,-1214.75 229.5,-1214.75"/>
<text text-anchor="start" x="234.5" y="-1240.75" font-family="Linux libertine" font-size="10.00">unsqueeze</text>
<text text-anchor="start" x="240.88" y="-1228" font-family="Linux libertine" font-size="10.00">depth:1</text>
<polygon fill="none" stroke="black" points="285.25,-1237.5 285.25,-1260.25 329,-1260.25 329,-1237.5 285.25,-1237.5"/>
<text text-anchor="start" x="294.75" y="-1245.75" font-family="Linux libertine" font-size="10.00">input:</text>
<polygon fill="none" stroke="black" points="329,-1237.5 329,-1260.25 382.5,-1260.25 382.5,-1237.5 329,-1237.5"/>
<text text-anchor="start" x="339.62" y="-1245.75" font-family="Linux libertine" font-size="10.00">(2, 20) </text>
<polygon fill="none" stroke="black" points="285.25,-1214.75 285.25,-1237.5 329,-1237.5 329,-1214.75 285.25,-1214.75"/>
<text text-anchor="start" x="290.25" y="-1223" font-family="Linux libertine" font-size="10.00">output: </text>
<polygon fill="none" stroke="black" points="329,-1214.75 329,-1237.5 382.5,-1237.5 382.5,-1214.75 329,-1214.75"/>
<text text-anchor="start" x="334" y="-1223" font-family="Linux libertine" font-size="10.00">(2, 20, 1) </text>
</g>
<!-- 0&#45;&gt;2 -->
<g id="edge1" class="edge">
<title>0&#45;&gt;2</title>
<path fill="none" stroke="black" d="M306,-1296.47C306,-1289.1 306,-1280.14 306,-1271.5"/>
<polygon fill="black" stroke="black" points="309.5,-1271.6 306,-1261.6 302.5,-1271.6 309.5,-1271.6"/>
</g>
<!-- 1 -->
<g id="node2" class="node">
<title>1</title>
<polygon fill="lightyellow" stroke="none" points="423.5,-845.5 322.5,-845.5 322.5,-810 423.5,-810 423.5,-845.5"/>
<polygon fill="none" stroke="black" points="322.5,-810 322.5,-845.5 384.25,-845.5 384.25,-810 322.5,-810"/>
<text text-anchor="start" x="327.5" y="-831" font-family="Linux libertine" font-size="10.00">input&#45;tensor</text>
<text text-anchor="start" x="336.88" y="-818.25" font-family="Linux libertine" font-size="10.00">depth:0</text>
<polygon fill="none" stroke="black" points="384.25,-810 384.25,-845.5 423.5,-845.5 423.5,-810 384.25,-810"/>
<text text-anchor="start" x="389.25" y="-824.62" font-family="Linux libertine" font-size="10.00">(2, 20)</text>
</g>
<!-- 9 -->
<g id="node10" class="node">
<title>9</title>
<polygon fill="aliceblue" stroke="none" points="305.5,-769 176.5,-769 176.5,-723.5 305.5,-723.5 305.5,-769"/>
<polygon fill="none" stroke="black" points="176.5,-723.5 176.5,-769 219.5,-769 219.5,-723.5 176.5,-723.5"/>
<text text-anchor="start" x="182.25" y="-749.5" font-family="Linux libertine" font-size="10.00">__eq__</text>
<text text-anchor="start" x="181.5" y="-736.75" font-family="Linux libertine" font-size="10.00">depth:2</text>
<polygon fill="none" stroke="black" points="219.5,-746.25 219.5,-769 263.25,-769 263.25,-746.25 219.5,-746.25"/>
<text text-anchor="start" x="229" y="-754.5" font-family="Linux libertine" font-size="10.00">input:</text>
<polygon fill="none" stroke="black" points="263.25,-746.25 263.25,-769 305.5,-769 305.5,-746.25 263.25,-746.25"/>
<text text-anchor="start" x="268.25" y="-754.5" font-family="Linux libertine" font-size="10.00">(2, 20) </text>
<polygon fill="none" stroke="black" points="219.5,-723.5 219.5,-746.25 263.25,-746.25 263.25,-723.5 219.5,-723.5"/>
<text text-anchor="start" x="224.5" y="-731.75" font-family="Linux libertine" font-size="10.00">output: </text>
<polygon fill="none" stroke="black" points="263.25,-723.5 263.25,-746.25 305.5,-746.25 305.5,-723.5 263.25,-723.5"/>
<text text-anchor="start" x="268.25" y="-731.75" font-family="Linux libertine" font-size="10.00">(2, 20) </text>
</g>
<!-- 1&#45;&gt;9 -->
<g id="edge8" class="edge">
<title>1&#45;&gt;9</title>
<path fill="none" stroke="black" d="M345.33,-810.08C328.25,-799.8 305.94,-786.36 286.34,-774.56"/>
<polygon fill="black" stroke="black" points="288.34,-771.68 277.97,-769.52 284.73,-777.67 288.34,-771.68"/>
</g>
<!-- 3 -->
<g id="node4" class="node">
<title>3</title>
<polygon fill="#c1ffc1" stroke="none" points="381.38,-1178.75 230.62,-1178.75 230.62,-1133.25 381.38,-1133.25 381.38,-1178.75"/>
<polygon fill="none" stroke="black" points="230.62,-1133.25 230.62,-1178.75 273.62,-1178.75 273.62,-1133.25 230.62,-1133.25"/>
<text text-anchor="start" x="238.62" y="-1159.25" font-family="Linux libertine" font-size="10.00">Linear</text>
<text text-anchor="start" x="235.62" y="-1146.5" font-family="Linux libertine" font-size="10.00">depth:1</text>
<polygon fill="none" stroke="black" points="273.62,-1156 273.62,-1178.75 317.38,-1178.75 317.38,-1156 273.62,-1156"/>
<text text-anchor="start" x="283.12" y="-1164.25" font-family="Linux libertine" font-size="10.00">input:</text>
<polygon fill="none" stroke="black" points="317.38,-1156 317.38,-1178.75 381.38,-1178.75 381.38,-1156 317.38,-1156"/>
<text text-anchor="start" x="327.62" y="-1164.25" font-family="Linux libertine" font-size="10.00">(2, 20, 1) </text>
<polygon fill="none" stroke="black" points="273.62,-1133.25 273.62,-1156 317.38,-1156 317.38,-1133.25 273.62,-1133.25"/>
<text text-anchor="start" x="278.62" y="-1141.5" font-family="Linux libertine" font-size="10.00">output: </text>
<polygon fill="none" stroke="black" points="317.38,-1133.25 317.38,-1156 381.38,-1156 381.38,-1133.25 317.38,-1133.25"/>
<text text-anchor="start" x="322.38" y="-1141.5" font-family="Linux libertine" font-size="10.00">(2, 20, 128) </text>
</g>
<!-- 2&#45;&gt;3 -->
<g id="edge2" class="edge">
<title>2&#45;&gt;3</title>
<path fill="none" stroke="black" d="M306,-1214.78C306,-1207.15 306,-1198.4 306,-1190.06"/>
<polygon fill="black" stroke="black" points="309.5,-1190.21 306,-1180.21 302.5,-1190.21 309.5,-1190.21"/>
</g>
<!-- 4 -->
<g id="node5" class="node">
<title>4</title>
<polygon fill="#c1ffc1" stroke="none" points="389.25,-1097.25 222.75,-1097.25 222.75,-1051.75 389.25,-1051.75 389.25,-1097.25"/>
<polygon fill="none" stroke="black" points="222.75,-1051.75 222.75,-1097.25 281.5,-1097.25 281.5,-1051.75 222.75,-1051.75"/>
<text text-anchor="start" x="227.75" y="-1077.75" font-family="Linux libertine" font-size="10.00">LayerNorm</text>
<text text-anchor="start" x="235.62" y="-1065" font-family="Linux libertine" font-size="10.00">depth:1</text>
<polygon fill="none" stroke="black" points="281.5,-1074.5 281.5,-1097.25 325.25,-1097.25 325.25,-1074.5 281.5,-1074.5"/>
<text text-anchor="start" x="291" y="-1082.75" font-family="Linux libertine" font-size="10.00">input:</text>
<polygon fill="none" stroke="black" points="325.25,-1074.5 325.25,-1097.25 389.25,-1097.25 389.25,-1074.5 325.25,-1074.5"/>
<text text-anchor="start" x="330.25" y="-1082.75" font-family="Linux libertine" font-size="10.00">(2, 20, 128) </text>
<polygon fill="none" stroke="black" points="281.5,-1051.75 281.5,-1074.5 325.25,-1074.5 325.25,-1051.75 281.5,-1051.75"/>
<text text-anchor="start" x="286.5" y="-1060" font-family="Linux libertine" font-size="10.00">output: </text>
<polygon fill="none" stroke="black" points="325.25,-1051.75 325.25,-1074.5 389.25,-1074.5 389.25,-1051.75 325.25,-1051.75"/>
<text text-anchor="start" x="330.25" y="-1060" font-family="Linux libertine" font-size="10.00">(2, 20, 128) </text>
</g>
<!-- 3&#45;&gt;4 -->
<g id="edge3" class="edge">
<title>3&#45;&gt;4</title>
<path fill="none" stroke="black" d="M306,-1133.28C306,-1125.65 306,-1116.9 306,-1108.56"/>
<polygon fill="black" stroke="black" points="309.5,-1108.71 306,-1098.71 302.5,-1108.71 309.5,-1108.71"/>
</g>
<!-- 5 -->
<g id="node6" class="node">
<title>5</title>
<polygon fill="aliceblue" stroke="none" points="381.38,-1015.75 230.62,-1015.75 230.62,-970.25 381.38,-970.25 381.38,-1015.75"/>
<polygon fill="none" stroke="black" points="230.62,-970.25 230.62,-1015.75 273.62,-1015.75 273.62,-970.25 230.62,-970.25"/>
<text text-anchor="start" x="243.88" y="-996.25" font-family="Linux libertine" font-size="10.00">relu</text>
<text text-anchor="start" x="235.62" y="-983.5" font-family="Linux libertine" font-size="10.00">depth:1</text>
<polygon fill="none" stroke="black" points="273.62,-993 273.62,-1015.75 317.38,-1015.75 317.38,-993 273.62,-993"/>
<text text-anchor="start" x="283.12" y="-1001.25" font-family="Linux libertine" font-size="10.00">input:</text>
<polygon fill="none" stroke="black" points="317.38,-993 317.38,-1015.75 381.38,-1015.75 381.38,-993 317.38,-993"/>
<text text-anchor="start" x="322.38" y="-1001.25" font-family="Linux libertine" font-size="10.00">(2, 20, 128) </text>
<polygon fill="none" stroke="black" points="273.62,-970.25 273.62,-993 317.38,-993 317.38,-970.25 273.62,-970.25"/>
<text text-anchor="start" x="278.62" y="-978.5" font-family="Linux libertine" font-size="10.00">output: </text>
<polygon fill="none" stroke="black" points="317.38,-970.25 317.38,-993 381.38,-993 381.38,-970.25 317.38,-970.25"/>
<text text-anchor="start" x="322.38" y="-978.5" font-family="Linux libertine" font-size="10.00">(2, 20, 128) </text>
</g>
<!-- 4&#45;&gt;5 -->
<g id="edge4" class="edge">
<title>4&#45;&gt;5</title>
<path fill="none" stroke="black" d="M306,-1051.78C306,-1044.15 306,-1035.4 306,-1027.06"/>
<polygon fill="black" stroke="black" points="309.5,-1027.21 306,-1017.21 302.5,-1027.21 309.5,-1027.21"/>
</g>
<!-- 6 -->
<g id="node7" class="node">
<title>6</title>
<polygon fill="#c1ffc1" stroke="none" points="415.5,-934.25 196.5,-934.25 196.5,-888.75 415.5,-888.75 415.5,-934.25"/>
<polygon fill="none" stroke="black" points="196.5,-888.75 196.5,-934.25 239.5,-934.25 239.5,-888.75 196.5,-888.75"/>
<text text-anchor="start" x="206" y="-914.75" font-family="Linux libertine" font-size="10.00">LSTM</text>
<text text-anchor="start" x="201.5" y="-902" font-family="Linux libertine" font-size="10.00">depth:1</text>
<polygon fill="none" stroke="black" points="239.5,-911.5 239.5,-934.25 283.25,-934.25 283.25,-911.5 239.5,-911.5"/>
<text text-anchor="start" x="249" y="-919.75" font-family="Linux libertine" font-size="10.00">input:</text>
<polygon fill="none" stroke="black" points="283.25,-911.5 283.25,-934.25 415.5,-934.25 415.5,-911.5 283.25,-911.5"/>
<text text-anchor="start" x="322.38" y="-919.75" font-family="Linux libertine" font-size="10.00">(2, 20, 128) </text>
<polygon fill="none" stroke="black" points="239.5,-888.75 239.5,-911.5 283.25,-911.5 283.25,-888.75 239.5,-888.75"/>
<text text-anchor="start" x="244.5" y="-897" font-family="Linux libertine" font-size="10.00">output: </text>
<polygon fill="none" stroke="black" points="283.25,-888.75 283.25,-911.5 415.5,-911.5 415.5,-888.75 283.25,-888.75"/>
<text text-anchor="start" x="288.25" y="-897" font-family="Linux libertine" font-size="10.00">(2, 20, 128), 2 x (2, 2, 128) </text>
</g>
<!-- 5&#45;&gt;6 -->
<g id="edge5" class="edge">
<title>5&#45;&gt;6</title>
<path fill="none" stroke="black" d="M306,-970.28C306,-962.65 306,-953.9 306,-945.56"/>
<polygon fill="black" stroke="black" points="309.5,-945.71 306,-935.71 302.5,-945.71 309.5,-945.71"/>
</g>
<!-- 7 -->
<g id="node8" class="node">
<title>7</title>
<polygon fill="#c1ffc1" stroke="none" points="235.38,-850.5 84.62,-850.5 84.62,-805 235.38,-805 235.38,-850.5"/>
<polygon fill="none" stroke="black" points="84.62,-805 84.62,-850.5 127.62,-850.5 127.62,-805 84.62,-805"/>
<text text-anchor="start" x="92.62" y="-831" font-family="Linux libertine" font-size="10.00">Linear</text>
<text text-anchor="start" x="89.62" y="-818.25" font-family="Linux libertine" font-size="10.00">depth:2</text>
<polygon fill="none" stroke="black" points="127.62,-827.75 127.62,-850.5 171.38,-850.5 171.38,-827.75 127.62,-827.75"/>
<text text-anchor="start" x="137.12" y="-836" font-family="Linux libertine" font-size="10.00">input:</text>
<polygon fill="none" stroke="black" points="171.38,-827.75 171.38,-850.5 235.38,-850.5 235.38,-827.75 171.38,-827.75"/>
<text text-anchor="start" x="176.38" y="-836" font-family="Linux libertine" font-size="10.00">(2, 20, 128) </text>
<polygon fill="none" stroke="black" points="127.62,-805 127.62,-827.75 171.38,-827.75 171.38,-805 127.62,-805"/>
<text text-anchor="start" x="132.62" y="-813.25" font-family="Linux libertine" font-size="10.00">output: </text>
<polygon fill="none" stroke="black" points="171.38,-805 171.38,-827.75 235.38,-827.75 235.38,-805 171.38,-805"/>
<text text-anchor="start" x="181.62" y="-813.25" font-family="Linux libertine" font-size="10.00">(2, 20, 1) </text>
</g>
<!-- 6&#45;&gt;7 -->
<g id="edge6" class="edge">
<title>6&#45;&gt;7</title>
<path fill="none" stroke="black" d="M267.26,-888.81C249.28,-878.74 227.73,-866.67 208.67,-856"/>
<polygon fill="black" stroke="black" points="210.43,-852.97 199.99,-851.14 207.01,-859.08 210.43,-852.97"/>
</g>
<!-- 15 -->
<g id="node16" class="node">
<title>15</title>
<polygon fill="aliceblue" stroke="none" points="259.62,-280 62.38,-280 62.38,-234.5 259.62,-234.5 259.62,-280"/>
<polygon fill="none" stroke="black" points="62.38,-234.5 62.38,-280 105.38,-280 105.38,-234.5 62.38,-234.5"/>
<text text-anchor="start" x="73" y="-260.5" font-family="Linux libertine" font-size="10.00">bmm</text>
<text text-anchor="start" x="67.38" y="-247.75" font-family="Linux libertine" font-size="10.00">depth:2</text>
<polygon fill="none" stroke="black" points="105.38,-257.25 105.38,-280 149.12,-280 149.12,-257.25 105.38,-257.25"/>
<text text-anchor="start" x="114.88" y="-265.5" font-family="Linux libertine" font-size="10.00">input:</text>
<polygon fill="none" stroke="black" points="149.12,-257.25 149.12,-280 259.62,-280 259.62,-257.25 149.12,-257.25"/>
<text text-anchor="start" x="154.12" y="-265.5" font-family="Linux libertine" font-size="10.00">(2, 1, 20), (2, 20, 128) </text>
<polygon fill="none" stroke="black" points="105.38,-234.5 105.38,-257.25 149.12,-257.25 149.12,-234.5 105.38,-234.5"/>
<text text-anchor="start" x="110.38" y="-242.75" font-family="Linux libertine" font-size="10.00">output: </text>
<polygon fill="none" stroke="black" points="149.12,-234.5 149.12,-257.25 259.62,-257.25 259.62,-234.5 149.12,-234.5"/>
<text text-anchor="start" x="180" y="-242.75" font-family="Linux libertine" font-size="10.00">(2, 1, 128) </text>
</g>
<!-- 6&#45;&gt;15 -->
<g id="edge7" class="edge">
<title>6&#45;&gt;15</title>
<path fill="none" stroke="black" d="M415.34,-890.94C423.27,-887.94 429.52,-884.55 433,-880.75 473.46,-836.53 452,-807.18 452,-747.25 452,-747.25 452,-747.25 452,-419.25 452,-333.05 353.03,-292.63 270.52,-273.92"/>
<polygon fill="black" stroke="black" points="271.51,-270.55 261,-271.85 270.03,-277.39 271.51,-270.55"/>
</g>
<!-- 8 -->
<g id="node9" class="node">
<title>8</title>
<polygon fill="aliceblue" stroke="none" points="158.25,-769 15.75,-769 15.75,-723.5 158.25,-723.5 158.25,-769"/>
<polygon fill="none" stroke="black" points="15.75,-723.5 15.75,-769 61,-769 61,-723.5 15.75,-723.5"/>
<text text-anchor="start" x="20.75" y="-749.5" font-family="Linux libertine" font-size="10.00">squeeze</text>
<text text-anchor="start" x="21.88" y="-736.75" font-family="Linux libertine" font-size="10.00">depth:2</text>
<polygon fill="none" stroke="black" points="61,-746.25 61,-769 104.75,-769 104.75,-746.25 61,-746.25"/>
<text text-anchor="start" x="70.5" y="-754.5" font-family="Linux libertine" font-size="10.00">input:</text>
<polygon fill="none" stroke="black" points="104.75,-746.25 104.75,-769 158.25,-769 158.25,-746.25 104.75,-746.25"/>
<text text-anchor="start" x="109.75" y="-754.5" font-family="Linux libertine" font-size="10.00">(2, 20, 1) </text>
<polygon fill="none" stroke="black" points="61,-723.5 61,-746.25 104.75,-746.25 104.75,-723.5 61,-723.5"/>
<text text-anchor="start" x="66" y="-731.75" font-family="Linux libertine" font-size="10.00">output: </text>
<polygon fill="none" stroke="black" points="104.75,-723.5 104.75,-746.25 158.25,-746.25 158.25,-723.5 104.75,-723.5"/>
<text text-anchor="start" x="115.38" y="-731.75" font-family="Linux libertine" font-size="10.00">(2, 20) </text>
</g>
<!-- 7&#45;&gt;8 -->
<g id="edge9" class="edge">
<title>7&#45;&gt;8</title>
<path fill="none" stroke="black" d="M140.05,-805.03C132.17,-796.44 122.97,-786.43 114.47,-777.17"/>
<polygon fill="black" stroke="black" points="117.29,-775.06 107.95,-770.06 112.13,-779.8 117.29,-775.06"/>
</g>
<!-- 10 -->
<g id="node11" class="node">
<title>10</title>
<polygon fill="aliceblue" stroke="none" points="245.62,-687.5 84.38,-687.5 84.38,-642 245.62,-642 245.62,-687.5"/>
<polygon fill="none" stroke="black" points="84.38,-642 84.38,-687.5 143.12,-687.5 143.12,-642 84.38,-642"/>
<text text-anchor="start" x="89.38" y="-668" font-family="Linux libertine" font-size="10.00">masked_fill</text>
<text text-anchor="start" x="97.25" y="-655.25" font-family="Linux libertine" font-size="10.00">depth:2</text>
<polygon fill="none" stroke="black" points="143.12,-664.75 143.12,-687.5 186.88,-687.5 186.88,-664.75 143.12,-664.75"/>
<text text-anchor="start" x="152.62" y="-673" font-family="Linux libertine" font-size="10.00">input:</text>
<polygon fill="none" stroke="black" points="186.88,-664.75 186.88,-687.5 245.62,-687.5 245.62,-664.75 186.88,-664.75"/>
<text text-anchor="start" x="191.88" y="-673" font-family="Linux libertine" font-size="10.00">2 x (2, 20) </text>
<polygon fill="none" stroke="black" points="143.12,-642 143.12,-664.75 186.88,-664.75 186.88,-642 143.12,-642"/>
<text text-anchor="start" x="148.12" y="-650.25" font-family="Linux libertine" font-size="10.00">output: </text>
<polygon fill="none" stroke="black" points="186.88,-642 186.88,-664.75 245.62,-664.75 245.62,-642 186.88,-642"/>
<text text-anchor="start" x="200.12" y="-650.25" font-family="Linux libertine" font-size="10.00">(2, 20) </text>
</g>
<!-- 8&#45;&gt;10 -->
<g id="edge10" class="edge">
<title>8&#45;&gt;10</title>
<path fill="none" stroke="black" d="M108.31,-723.53C116.83,-714.85 126.76,-704.72 135.92,-695.39"/>
<polygon fill="black" stroke="black" points="138.15,-698.12 142.65,-688.53 133.15,-693.21 138.15,-698.12"/>
</g>
<!-- 9&#45;&gt;10 -->
<g id="edge11" class="edge">
<title>9&#45;&gt;10</title>
<path fill="none" stroke="black" d="M220.23,-723.53C212.02,-714.94 202.45,-704.93 193.6,-695.67"/>
<polygon fill="black" stroke="black" points="196.23,-693.35 186.79,-688.54 191.17,-698.19 196.23,-693.35"/>
</g>
<!-- 11 -->
<g id="node12" class="node">
<title>11</title>
<polygon fill="aliceblue" stroke="none" points="229.5,-606 100.5,-606 100.5,-560.5 229.5,-560.5 229.5,-606"/>
<polygon fill="none" stroke="black" points="100.5,-560.5 100.5,-606 143.5,-606 143.5,-560.5 100.5,-560.5"/>
<text text-anchor="start" x="115.62" y="-586.5" font-family="Linux libertine" font-size="10.00">div</text>
<text text-anchor="start" x="105.5" y="-573.75" font-family="Linux libertine" font-size="10.00">depth:2</text>
<polygon fill="none" stroke="black" points="143.5,-583.25 143.5,-606 187.25,-606 187.25,-583.25 143.5,-583.25"/>
<text text-anchor="start" x="153" y="-591.5" font-family="Linux libertine" font-size="10.00">input:</text>
<polygon fill="none" stroke="black" points="187.25,-583.25 187.25,-606 229.5,-606 229.5,-583.25 187.25,-583.25"/>
<text text-anchor="start" x="192.25" y="-591.5" font-family="Linux libertine" font-size="10.00">(2, 20) </text>
<polygon fill="none" stroke="black" points="143.5,-560.5 143.5,-583.25 187.25,-583.25 187.25,-560.5 143.5,-560.5"/>
<text text-anchor="start" x="148.5" y="-568.75" font-family="Linux libertine" font-size="10.00">output: </text>
<polygon fill="none" stroke="black" points="187.25,-560.5 187.25,-583.25 229.5,-583.25 229.5,-560.5 187.25,-560.5"/>
<text text-anchor="start" x="192.25" y="-568.75" font-family="Linux libertine" font-size="10.00">(2, 20) </text>
</g>
<!-- 10&#45;&gt;11 -->
<g id="edge12" class="edge">
<title>10&#45;&gt;11</title>
<path fill="none" stroke="black" d="M165,-642.03C165,-634.4 165,-625.65 165,-617.31"/>
<polygon fill="black" stroke="black" points="168.5,-617.46 165,-607.46 161.5,-617.46 168.5,-617.46"/>
</g>
<!-- 12 -->
<g id="node13" class="node">
<title>12</title>
<polygon fill="aliceblue" stroke="none" points="230.25,-524.5 99.75,-524.5 99.75,-479 230.25,-479 230.25,-524.5"/>
<polygon fill="none" stroke="black" points="99.75,-479 99.75,-524.5 144.25,-524.5 144.25,-479 99.75,-479"/>
<text text-anchor="start" x="104.75" y="-505" font-family="Linux libertine" font-size="10.00">softmax</text>
<text text-anchor="start" x="105.5" y="-492.25" font-family="Linux libertine" font-size="10.00">depth:2</text>
<polygon fill="none" stroke="black" points="144.25,-501.75 144.25,-524.5 188,-524.5 188,-501.75 144.25,-501.75"/>
<text text-anchor="start" x="153.75" y="-510" font-family="Linux libertine" font-size="10.00">input:</text>
<polygon fill="none" stroke="black" points="188,-501.75 188,-524.5 230.25,-524.5 230.25,-501.75 188,-501.75"/>
<text text-anchor="start" x="193" y="-510" font-family="Linux libertine" font-size="10.00">(2, 20) </text>
<polygon fill="none" stroke="black" points="144.25,-479 144.25,-501.75 188,-501.75 188,-479 144.25,-479"/>
<text text-anchor="start" x="149.25" y="-487.25" font-family="Linux libertine" font-size="10.00">output: </text>
<polygon fill="none" stroke="black" points="188,-479 188,-501.75 230.25,-501.75 230.25,-479 188,-479"/>
<text text-anchor="start" x="193" y="-487.25" font-family="Linux libertine" font-size="10.00">(2, 20) </text>
</g>
<!-- 11&#45;&gt;12 -->
<g id="edge13" class="edge">
<title>11&#45;&gt;12</title>
<path fill="none" stroke="black" d="M165,-560.53C165,-552.9 165,-544.15 165,-535.81"/>
<polygon fill="black" stroke="black" points="168.5,-535.96 165,-525.96 161.5,-535.96 168.5,-535.96"/>
</g>
<!-- 13 -->
<g id="node14" class="node">
<title>13</title>
<polygon fill="#c1ffc1" stroke="none" points="230.25,-443 99.75,-443 99.75,-397.5 230.25,-397.5 230.25,-443"/>
<polygon fill="none" stroke="black" points="99.75,-397.5 99.75,-443 144.25,-443 144.25,-397.5 99.75,-397.5"/>
<text text-anchor="start" x="104.75" y="-423.5" font-family="Linux libertine" font-size="10.00">Dropout</text>
<text text-anchor="start" x="105.5" y="-410.75" font-family="Linux libertine" font-size="10.00">depth:2</text>
<polygon fill="none" stroke="black" points="144.25,-420.25 144.25,-443 188,-443 188,-420.25 144.25,-420.25"/>
<text text-anchor="start" x="153.75" y="-428.5" font-family="Linux libertine" font-size="10.00">input:</text>
<polygon fill="none" stroke="black" points="188,-420.25 188,-443 230.25,-443 230.25,-420.25 188,-420.25"/>
<text text-anchor="start" x="193" y="-428.5" font-family="Linux libertine" font-size="10.00">(2, 20) </text>
<polygon fill="none" stroke="black" points="144.25,-397.5 144.25,-420.25 188,-420.25 188,-397.5 144.25,-397.5"/>
<text text-anchor="start" x="149.25" y="-405.75" font-family="Linux libertine" font-size="10.00">output: </text>
<polygon fill="none" stroke="black" points="188,-397.5 188,-420.25 230.25,-420.25 230.25,-397.5 188,-397.5"/>
<text text-anchor="start" x="193" y="-405.75" font-family="Linux libertine" font-size="10.00">(2, 20) </text>
</g>
<!-- 12&#45;&gt;13 -->
<g id="edge14" class="edge">
<title>12&#45;&gt;13</title>
<path fill="none" stroke="black" d="M165,-479.03C165,-471.4 165,-462.65 165,-454.31"/>
<polygon fill="black" stroke="black" points="168.5,-454.46 165,-444.46 161.5,-454.46 168.5,-454.46"/>
</g>
<!-- 14 -->
<g id="node15" class="node">
<title>14</title>
<polygon fill="aliceblue" stroke="none" points="180.5,-361.5 27.5,-361.5 27.5,-316 180.5,-316 180.5,-361.5"/>
<polygon fill="none" stroke="black" points="27.5,-316 27.5,-361.5 83.25,-361.5 83.25,-316 27.5,-316"/>
<text text-anchor="start" x="32.5" y="-342" font-family="Linux libertine" font-size="10.00">unsqueeze</text>
<text text-anchor="start" x="38.88" y="-329.25" font-family="Linux libertine" font-size="10.00">depth:2</text>
<polygon fill="none" stroke="black" points="83.25,-338.75 83.25,-361.5 127,-361.5 127,-338.75 83.25,-338.75"/>
<text text-anchor="start" x="92.75" y="-347" font-family="Linux libertine" font-size="10.00">input:</text>
<polygon fill="none" stroke="black" points="127,-338.75 127,-361.5 180.5,-361.5 180.5,-338.75 127,-338.75"/>
<text text-anchor="start" x="137.62" y="-347" font-family="Linux libertine" font-size="10.00">(2, 20) </text>
<polygon fill="none" stroke="black" points="83.25,-316 83.25,-338.75 127,-338.75 127,-316 83.25,-316"/>
<text text-anchor="start" x="88.25" y="-324.25" font-family="Linux libertine" font-size="10.00">output: </text>
<polygon fill="none" stroke="black" points="127,-316 127,-338.75 180.5,-338.75 180.5,-316 127,-316"/>
<text text-anchor="start" x="132" y="-324.25" font-family="Linux libertine" font-size="10.00">(2, 1, 20) </text>
</g>
<!-- 13&#45;&gt;14 -->
<g id="edge15" class="edge">
<title>13&#45;&gt;14</title>
<path fill="none" stroke="black" d="M148.33,-397.53C141.94,-389.2 134.53,-379.54 127.61,-370.52"/>
<polygon fill="black" stroke="black" points="130.43,-368.45 121.57,-362.65 124.88,-372.71 130.43,-368.45"/>
</g>
<!-- 17 -->
<g id="node18" class="node">
<title>17</title>
<polygon fill="lightyellow" stroke="none" points="305.5,-356.5 198.5,-356.5 198.5,-321 305.5,-321 305.5,-356.5"/>
<polygon fill="none" stroke="black" points="198.5,-321 198.5,-356.5 266.25,-356.5 266.25,-321 198.5,-321"/>
<text text-anchor="start" x="203.5" y="-342" font-family="Linux libertine" font-size="10.00">output&#45;tensor</text>
<text text-anchor="start" x="215.88" y="-329.25" font-family="Linux libertine" font-size="10.00">depth:0</text>
<polygon fill="none" stroke="black" points="266.25,-321 266.25,-356.5 305.5,-356.5 305.5,-321 266.25,-321"/>
<text text-anchor="start" x="271.25" y="-335.62" font-family="Linux libertine" font-size="10.00">(2, 20)</text>
</g>
<!-- 13&#45;&gt;17 -->
<g id="edge19" class="edge">
<title>13&#45;&gt;17</title>
<path fill="none" stroke="black" d="M188.77,-397.53C200.08,-387.2 213.64,-374.8 225.3,-364.15"/>
<polygon fill="black" stroke="black" points="227.64,-366.75 232.66,-357.42 222.91,-361.59 227.64,-366.75"/>
</g>
<!-- 14&#45;&gt;15 -->
<g id="edge16" class="edge">
<title>14&#45;&gt;15</title>
<path fill="none" stroke="black" d="M119.58,-316.03C125.54,-307.7 132.47,-298.04 138.94,-289.02"/>
<polygon fill="black" stroke="black" points="141.58,-291.34 144.56,-281.18 135.89,-287.27 141.58,-291.34"/>
</g>
<!-- 16 -->
<g id="node17" class="node">
<title>16</title>
<polygon fill="aliceblue" stroke="none" points="234.88,-198.5 87.12,-198.5 87.12,-153 234.88,-153 234.88,-198.5"/>
<polygon fill="none" stroke="black" points="87.12,-153 87.12,-198.5 132.38,-198.5 132.38,-153 87.12,-153"/>
<text text-anchor="start" x="92.12" y="-179" font-family="Linux libertine" font-size="10.00">squeeze</text>
<text text-anchor="start" x="93.25" y="-166.25" font-family="Linux libertine" font-size="10.00">depth:2</text>
<polygon fill="none" stroke="black" points="132.38,-175.75 132.38,-198.5 176.12,-198.5 176.12,-175.75 132.38,-175.75"/>
<text text-anchor="start" x="141.88" y="-184" font-family="Linux libertine" font-size="10.00">input:</text>
<polygon fill="none" stroke="black" points="176.12,-175.75 176.12,-198.5 234.88,-198.5 234.88,-175.75 176.12,-175.75"/>
<text text-anchor="start" x="181.12" y="-184" font-family="Linux libertine" font-size="10.00">(2, 1, 128) </text>
<polygon fill="none" stroke="black" points="132.38,-153 132.38,-175.75 176.12,-175.75 176.12,-153 132.38,-153"/>
<text text-anchor="start" x="137.38" y="-161.25" font-family="Linux libertine" font-size="10.00">output: </text>
<polygon fill="none" stroke="black" points="176.12,-153 176.12,-175.75 234.88,-175.75 234.88,-153 176.12,-153"/>
<text text-anchor="start" x="186.75" y="-161.25" font-family="Linux libertine" font-size="10.00">(2, 128) </text>
</g>
<!-- 15&#45;&gt;16 -->
<g id="edge17" class="edge">
<title>15&#45;&gt;16</title>
<path fill="none" stroke="black" d="M161,-234.53C161,-226.9 161,-218.15 161,-209.81"/>
<polygon fill="black" stroke="black" points="164.5,-209.96 161,-199.96 157.5,-209.96 164.5,-209.96"/>
</g>
<!-- 18 -->
<g id="node19" class="node">
<title>18</title>
<polygon fill="#c1ffc1" stroke="none" points="228.12,-117 93.88,-117 93.88,-71.5 228.12,-71.5 228.12,-117"/>
<polygon fill="none" stroke="black" points="93.88,-71.5 93.88,-117 136.88,-117 136.88,-71.5 93.88,-71.5"/>
<text text-anchor="start" x="101.88" y="-97.5" font-family="Linux libertine" font-size="10.00">Linear</text>
<text text-anchor="start" x="98.88" y="-84.75" font-family="Linux libertine" font-size="10.00">depth:1</text>
<polygon fill="none" stroke="black" points="136.88,-94.25 136.88,-117 180.62,-117 180.62,-94.25 136.88,-94.25"/>
<text text-anchor="start" x="146.38" y="-102.5" font-family="Linux libertine" font-size="10.00">input:</text>
<polygon fill="none" stroke="black" points="180.62,-94.25 180.62,-117 228.12,-117 228.12,-94.25 180.62,-94.25"/>
<text text-anchor="start" x="185.62" y="-102.5" font-family="Linux libertine" font-size="10.00">(2, 128) </text>
<polygon fill="none" stroke="black" points="136.88,-71.5 136.88,-94.25 180.62,-94.25 180.62,-71.5 136.88,-71.5"/>
<text text-anchor="start" x="141.88" y="-79.75" font-family="Linux libertine" font-size="10.00">output: </text>
<polygon fill="none" stroke="black" points="180.62,-71.5 180.62,-94.25 228.12,-94.25 228.12,-71.5 180.62,-71.5"/>
<text text-anchor="start" x="190.88" y="-79.75" font-family="Linux libertine" font-size="10.00">(2, 1) </text>
</g>
<!-- 16&#45;&gt;18 -->
<g id="edge18" class="edge">
<title>16&#45;&gt;18</title>
<path fill="none" stroke="black" d="M161,-153.03C161,-145.4 161,-136.65 161,-128.31"/>
<polygon fill="black" stroke="black" points="164.5,-128.46 161,-118.46 157.5,-128.46 164.5,-128.46"/>
</g>
<!-- 19 -->
<g id="node20" class="node">
<title>19</title>
<polygon fill="lightyellow" stroke="none" points="211.88,-35.5 110.12,-35.5 110.12,0 211.88,0 211.88,-35.5"/>
<polygon fill="none" stroke="black" points="110.12,0 110.12,-35.5 177.88,-35.5 177.88,0 110.12,0"/>
<text text-anchor="start" x="115.12" y="-21" font-family="Linux libertine" font-size="10.00">output&#45;tensor</text>
<text text-anchor="start" x="127.5" y="-8.25" font-family="Linux libertine" font-size="10.00">depth:0</text>
<polygon fill="none" stroke="black" points="177.88,0 177.88,-35.5 211.88,-35.5 211.88,0 177.88,0"/>
<text text-anchor="start" x="182.88" y="-14.62" font-family="Linux libertine" font-size="10.00">(2, 1)</text>
</g>
<!-- 18&#45;&gt;19 -->
<g id="edge20" class="edge">
<title>18&#45;&gt;19</title>
<path fill="none" stroke="black" d="M161,-71.7C161,-63.85 161,-54.85 161,-46.54"/>
<polygon fill="black" stroke="black" points="164.5,-46.56 161,-36.56 157.5,-46.56 164.5,-46.56"/>
</g>
</g>
</svg>
